HIERARCHY
ROOT Hips
{
	OFFSET -0.001795 -0.223333 0.028219
	CHANNELS 6 Xposition Yposition Zposition Zrotation Yrotation Xrotation 
	JOINT LeftUpLeg
	{
		OFFSET 0.069520 -0.091406 -0.006815
		CHANNELS 3 Zrotation Yrotation Xrotation
		JOINT LeftLeg
		{
			OFFSET 0.034277 -0.375199 -0.004496
			CHANNELS 3 Zrotation Yrotation Xrotation
			JOINT LeftFoot
			{
				OFFSET -0.013596 -0.397961 -0.043693
				CHANNELS 3 Zrotation Yrotation Xrotation
				JOINT LeftToe
				{
					OFFSET 0.026358 -0.055791 0.119288
					CHANNELS 3 Zrotation Yrotation Xrotation
					End Site
					{
						OFFSET 0.000000 0.000000 0.000000
					}
				}
			}
		}
	}
	JOINT RightUpLeg
	{
		OFFSET -0.067670 -0.090522 -0.004320
		CHANNELS 3 Zrotation Yrotation Xrotation
		JOINT RightLeg
		{
			OFFSET -0.038290 -0.382569 -0.008850
			CHANNELS 3 Zrotation Yrotation Xrotation
			JOINT RightFoot
			{
				OFFSET 0.015774 -0.398415 -0.042312
				CHANNELS 3 Zrotation Yrotation Xrotation
				JOINT RightToe
				{
					OFFSET -0.025372 -0.048144 0.123348
					CHANNELS 3 Zrotation Yrotation Xrotation
					End Site
					{
						OFFSET 0.000000 0.000000 0.000000
					}
				}
			}
		}
	}
	JOINT Spine
	{
		OFFSET -0.002533 0.108963 -0.026696
		CHANNELS 3 Zrotation Yrotation Xrotation
		JOINT Spine1
		{
			OFFSET 0.005487 0.135180 0.001092
			CHANNELS 3 Zrotation Yrotation Xrotation
			JOINT Spine2
			{
				OFFSET 0.001457 0.052922 0.025425
				CHANNELS 3 Zrotation Yrotation Xrotation
				JOINT Neck
				{
					OFFSET -0.002778 0.213870 -0.042857
					CHANNELS 3 Zrotation Yrotation Xrotation
					JOINT Head
					{
						OFFSET 0.005152 0.064970 0.051349
						CHANNELS 3 Zrotation Yrotation Xrotation
						End Site
						{
							OFFSET 0.000000 0.000000 0.000000
						}
					}
				}
				JOINT LeftShoulder
				{
					OFFSET 0.078845 0.121749 -0.034090
					CHANNELS 3 Zrotation Yrotation Xrotation
					JOINT LeftArm
					{
						OFFSET 0.090977 0.030469 -0.008868
						CHANNELS 3 Zrotation Yrotation Xrotation
						JOINT LeftForeArm
						{
							OFFSET 0.259612 -0.012772 -0.027456
							CHANNELS 3 Zrotation Yrotation Xrotation
							JOINT LeftHand
							{
								OFFSET 0.249234 0.008986 -0.001171
								CHANNELS 3 Zrotation Yrotation Xrotation
								End Site
								{
									OFFSET 0.000000 0.000000 0.000000
								}
							}
						}
					}
				}
				JOINT RightShoulder
				{
					OFFSET -0.081759 0.118833 -0.038615
					CHANNELS 3 Zrotation Yrotation Xrotation
					JOINT RightArm
					{
						OFFSET -0.096012 0.032551 -0.009143
						CHANNELS 3 Zrotation Yrotation Xrotation
						JOINT RightForeArm
						{
							OFFSET -0.253742 -0.013329 -0.021401
							CHANNELS 3 Zrotation Yrotation Xrotation
							JOINT RightHand
							{
								OFFSET -0.255298 0.007772 -0.005559
								CHANNELS 3 Zrotation Yrotation Xrotation
								End Site
								{
									OFFSET 0.000000 0.000000 0.000000
								}
							}
						}
					}
				}
			}
		}
	}
}
MOTION
Frames: 16
Frame Time: 0.05000000
0.000000 0.849796 0.000000 1.366098 -7.122885 6.630692 8.331800 -0.581231 -32.436240 -6.771640 2.083057 28.506916 5.501241 6.355347 -23.449923 0.000000 0.000000 0.000000 -15.766422 0.897484 -12.651611 3.299974 0.557569 41.744334 -5.966295 9.868777 -33.703182 0.000000 0.000000 0.000000 -1.903886 0.293742 -7.190901 -1.680886 0.818473 -12.580817 0.046405 3.488645 33.095459 2.951078 0.110394 -25.480367 0.000000 0.000000 0.000000 29.071647 4.275748 0.877303 -85.475412 -8.740442 -3.662942 -14.412236 -26.004301 4.546917 0.000000 0.000000 0.000000 -29.452537 -4.272852 0.755361 92.483676 11.966379 2.058419 9.121948 30.137036 3.645787 0.000000 0.000000 0.000000 
-0.917703 0.852790 -1.071299 1.307916 6.571849 6.641080 11.332996 -0.679640 -33.541053 -6.743140 1.086463 26.191513 6.183481 7.268285 -19.228948 0.000000 0.000000 0.000000 -13.452113 0.610569 -8.511953 3.997172 -1.044331 32.791152 -5.574036 9.592157 -38.107658 0.000000 0.000000 0.000000 -1.162780 0.260891 -5.823176 -1.459807 0.920724 -12.224935 -0.642893 3.033969 32.759362 4.647352 -0.255386 -23.330998 0.000000 0.000000 0.000000 26.827987 3.857283 2.199349 -82.417541 -9.803174 -7.379424 -15.571950 -25.135868 4.626216 0.000000 0.000000 0.000000 -28.746035 -3.498089 -0.717010 90.910443 12.390376 7.494230 6.559682 30.942737 3.009323 0.000000 0.000000 0.000000 
-2.016652 0.848235 -1.955462 2.140978 19.893437 10.129779 11.332498 -1.691620 -37.277588 -5.300777 0.069319 22.863374 7.830388 12.013667 -16.187493 0.000000 0.000000 0.000000 -10.876943 0.651227 -9.913036 4.738211 -1.896911 25.964577 -4.723492 8.826526 -43.022464 0.000000 0.000000 0.000000 -0.630586 0.373897 -8.048540 -0.880571 0.897206 -12.638884 -0.816801 3.753188 32.361070 6.009842 0.183437 -24.910451 0.000000 0.000000 0.000000 26.165582 3.862124 3.865983 -82.577092 -11.271412 -11.277496 -17.410140 -23.986528 4.708249 0.000000 0.000000 0.000000 -28.354327 -3.313780 -2.407463 91.169459 10.198078 11.855597 4.869783 33.320505 2.691947 0.000000 0.000000 0.000000 
-3.156338 0.855544 -2.647834 2.838130 31.620501 12.178629 13.552469 -2.229077 -40.566825 -5.317405 -0.051470 17.061552 7.185384 11.111173 -10.674363 0.000000 0.000000 0.000000 -8.626335 0.736821 -13.342853 3.879309 -2.246238 25.010369 -2.845825 8.511509 -42.373930 0.000000 0.000000 0.000000 -0.320980 0.418822 -8.688044 -1.148508 1.105061 -11.440833 -0.718191 4.058939 32.445744 6.216791 0.460434 -21.913790 0.000000 0.000000 0.000000 26.634455 4.891776 5.243819 -82.741847 -13.987797 -13.576932 -18.275186 -23.349995 4.646430 0.000000 0.000000 0.000000 -29.811742 -2.421487 -3.658283 90.528620 11.401127 17.925724 -0.057184 34.278721 1.148744 0.000000 0.000000 0.000000 
-4.274162 0.862111 -3.129891 3.476229 44.572996 14.109490 14.346494 -3.016568 -41.416305 -7.339957 -0.041633 15.568522 8.695162 14.346037 -9.059154 0.000000 0.000000 0.000000 -6.475494 0.862962 -17.670057 3.465572 -3.122826 25.506166 -0.662883 6.967350 -40.517606 0.000000 0.000000 0.000000 -0.292750 0.436131 -8.604660 -0.792990 1.128083 -11.217659 -0.655408 3.224909 32.517629 6.635160 0.699153 -20.376811 0.000000 0.000000 0.000000 26.597494 5.490959 6.489746 -83.730518 -16.268419 -16.176813 -20.773829 -22.124778 4.814054 0.000000 0.000000 0.000000 -30.589190 -1.748334 -4.883356 90.581022 10.847055 21.985428 -1.669808 32.981783 0.369556 0.000000 0.000000 0.000000 
-5.280645 0.869969 -3.418283 4.683499 56.977569 19.085127 13.102059 -4.208735 -44.561050 -12.115394 -0.323417 22.839540 12.966348 24.490814 -11.350378 0.000000 0.000000 0.000000 -4.209944 1.188583 -22.691755 1.749157 -2.945424 23.952701 1.643433 4.381859 -37.803606 0.000000 0.000000 0.000000 -0.806876 0.623478 -12.202483 -0.578796 1.172838 -11.020483 -1.023120 2.005219 32.880581 7.062521 0.762625 -18.476554 0.000000 0.000000 0.000000 27.208097 5.442292 7.900082 -83.549784 -18.101695 -18.623379 -22.836450 -20.817525 4.786859 0.000000 0.000000 0.000000 -30.724399 -1.666975 -6.078687 90.689479 8.092178 23.745020 -1.603662 32.102957 0.172668 0.000000 0.000000 0.000000 
-6.166049 0.877883 -3.580105 7.514538 70.015657 21.718148 10.596586 -5.141715 -43.676082 -17.475909 -1.500069 33.596214 15.659930 31.587952 -10.306763 0.000000 0.000000 0.000000 -2.455413 1.120225 -23.342956 0.252632 -2.831484 21.952139 3.760146 2.144291 -36.313522 0.000000 0.000000 0.000000 -0.469206 0.611909 -11.867304 -0.207722 1.195497 -11.225431 -1.470685 1.135363 32.545472 7.268606 1.271865 -17.833564 0.000000 0.000000 0.000000 27.655409 5.373930 9.443978 -83.553753 -20.114326 -21.732197 -24.483992 -20.035114 4.704529 0.000000 0.000000 0.000000 -30.545914 -2.409806 -7.465666 90.208509 3.587126 23.726286 -2.253787 31.538374 -0.152483 0.000000 0.000000 0.000000 
-6.954229 0.882279 -3.644674 22.892158 81.973971 36.730370 7.488493 -4.847261 -39.273178 -23.919021 -3.094324 41.873721 19.025411 37.632131 -7.321111 0.000000 0.000000 0.000000 -1.357031 0.784555 -24.780109 -0.490882 -3.347567 21.274294 5.699500 0.875802 -35.341623 0.000000 0.000000 0.000000 -0.909148 0.611340 -11.870804 0.361500 1.131817 -11.036169 -1.971138 0.020323 32.049322 7.895317 1.785760 -18.298517 0.000000 0.000000 0.000000 27.993421 6.251942 10.773920 -82.843443 -20.395385 -25.568064 -27.538074 -19.070276 4.634309 0.000000 0.000000 0.000000 -30.670501 -2.792753 -8.716166 90.222945 -1.328239 23.489787 -2.379698 32.683011 -0.346030 0.000000 0.000000 0.000000 
-7.704996 0.884057 -3.620741 149.892299 84.625398 164.734896 5.844532 -3.970450 -34.774207 -27.746867 -4.974433 46.272971 22.000321 38.479584 -6.443405 0.000000 0.000000 0.000000 -0.718784 0.093677 -26.901496 -1.035649 -4.088162 20.875382 7.633651 1.345583 -32.388689 0.000000 0.000000 0.000000 -0.768382 0.635845 -13.359301 0.767426 1.103597 -11.137066 -2.410013 -1.616811 32.374635 8.310948 2.351569 -18.478084 0.000000 0.000000 0.000000 27.691723 6.908666 11.717342 -82.460257 -19.687772 -29.764562 -30.096822 -18.203615 4.355739 0.000000 0.000000 0.000000 -30.537395 -2.775786 -9.842032 91.275584 -3.894869 25.670644 -4.501243 31.481708 -1.269314 0.000000 0.000000 0.000000 
-8.452765 0.883697 -3.505141 171.895691 73.704534 -169.291614 4.663803 -2.972478 -30.570139 -25.957310 -6.734618 44.479541 26.260847 34.612831 -6.427613 0.000000 0.000000 0.000000 0.164062 -2.134109 -34.113621 -2.312113 -5.341329 23.038419 9.006558 2.746627 -29.599071 0.000000 0.000000 0.000000 -0.147942 0.515107 -18.437828 1.106369 0.955424 -10.549711 -2.960856 -2.340510 32.809225 9.336352 2.152020 -17.413130 0.000000 0.000000 0.000000 28.361561 7.311974 12.902062 -81.928320 -19.960344 -33.622642 -32.758958 -16.136446 3.630074 0.000000 0.000000 0.000000 -31.169961 -2.786645 -10.887892 91.658189 -6.551091 28.164827 -6.084233 30.492966 -1.955431 0.000000 0.000000 0.000000 
-9.216625 0.882514 -3.307662 175.896077 63.613764 -162.049471 2.897611 -2.143599 -26.464369 -16.941268 -7.274153 37.818372 31.798835 26.442240 -7.349268 0.000000 0.000000 0.000000 2.479616 -4.772033 -39.794451 -4.352119 -6.062485 24.632027 10.560109 6.183160 -25.873034 0.000000 0.000000 0.000000 0.325778 -0.005520 -22.299889 1.192709 0.873554 -10.670356 -3.026902 -2.126613 33.494091 9.469297 2.699618 -17.511532 0.000000 0.000000 0.000000 29.332121 7.564886 14.006565 -81.838696 -20.978882 -37.580427 -34.377949 -13.287413 2.379015 0.000000 0.000000 0.000000 -32.410743 -2.706237 -11.850814 92.474891 -8.222752 32.315695 -7.503640 29.130138 -2.661502 0.000000 0.000000 0.000000 
-10.008118 0.881965 -3.003500 177.431494 51.990888 -155.733426 1.833380 -2.147150 -25.706485 -9.133375 -5.710175 26.139756 40.947437 19.666454 -7.718599 0.000000 0.000000 0.000000 9.644740 -9.965692 -49.747241 -10.725173 -4.986341 27.083273 13.055906 13.813014 -19.778473 0.000000 0.000000 0.000000 1.771025 -1.958582 -27.731507 0.926438 0.592522 -10.152231 -2.638682 -1.474379 33.945403 9.995090 2.925017 -17.910563 0.000000 0.000000 0.000000 29.576298 7.541546 14.089003 -81.112042 -20.182630 -42.359768 -37.567014 -9.342465 0.420764 0.000000 0.000000 0.000000 -32.611334 -2.771946 -12.208717 93.430165 -8.650373 38.026155 -9.903997 26.333965 -3.420802 0.000000 0.000000 0.000000 
-10.814468 0.884739 -2.587174 177.819574 41.967300 -152.465214 0.584704 -2.516944 -25.723312 -5.268356 -4.901605 18.401230 48.336064 13.483919 -5.601693 0.000000 0.000000 0.000000 17.780317 -15.379364 -57.634365 -16.413022 -3.470409 26.969395 20.601266 24.314263 -10.674559 0.000000 0.000000 0.000000 3.200924 -4.305566 -30.022178 0.294926 0.030621 -9.099938 -1.493907 0.447170 33.679423 10.312797 2.527464 -17.620555 0.000000 0.000000 0.000000 29.771717 6.542807 13.255611 -80.509392 -20.644978 -46.486277 -39.158624 -6.649759 -1.622176 0.000000 0.000000 0.000000 -32.303766 -2.530044 -11.437059 94.289347 -6.481339 45.976579 -14.267457 22.310510 -4.179184 0.000000 0.000000 0.000000 
-11.586483 0.886812 -2.051205 178.281473 32.873258 -151.011548 0.479373 -3.518022 -26.294873 -6.196246 -6.091940 13.077573 60.251826 10.590769 0.580994 0.000000 0.000000 0.000000 28.069286 -19.785818 -65.181226 -21.840239 -2.161857 25.513529 30.730776 30.887333 -0.903705 0.000000 0.000000 0.000000 4.553376 -6.356145 -30.038347 -0.719169 -0.572050 -8.904517 -0.204239 2.778911 34.077440 9.839894 1.674933 -17.938698 0.000000 0.000000 0.000000 29.687655 4.573413 10.444194 -79.694319 -18.336653 -52.526038 -39.412369 -3.935694 -4.055834 0.000000 0.000000 0.000000 -31.532904 -2.787010 -8.754969 94.812459 -3.496533 55.461943 -17.978285 19.337637 -4.651010 0.000000 0.000000 0.000000 
-12.288684 0.887246 -1.429660 178.522366 25.119948 -150.137594 0.863950 -5.367713 -27.638483 -7.974119 -8.504201 10.450224 75.050080 4.373780 10.289937 0.000000 0.000000 0.000000 42.771218 -22.855212 -76.115380 -30.374799 -0.709043 23.292065 51.702844 34.755032 20.232412 0.000000 0.000000 0.000000 6.044669 -8.946053 -30.149160 -1.886811 -1.323915 -8.807089 1.484725 5.890812 34.363568 8.986737 -0.240737 -18.632451 0.000000 0.000000 0.000000 29.822895 1.537320 5.655445 -78.575419 -14.580318 -59.499069 -39.921102 -0.217726 -6.823557 0.000000 0.000000 0.000000 -30.764428 -3.512149 -3.425746 94.898359 2.700399 68.793699 -21.736223 14.604969 -4.490985 0.000000 0.000000 0.000000 
-12.886336 0.890207 -0.763629 178.441089 18.799369 -150.863940 0.259524 -6.662976 -27.711682 -9.600688 -11.365023 8.429610 97.801021 -14.322404 23.020503 0.000000 0.000000 0.000000 54.348923 -23.480529 -83.472547 -36.317495 -0.784267 19.781508 65.805873 30.915094 34.048372 0.000000 0.000000 0.000000 6.033911 -9.666170 -28.173866 -2.540346 -2.196365 -8.959325 2.037014 7.996127 34.438535 8.178048 -3.819462 -18.793615 0.000000 0.000000 0.000000 30.458445 -1.868059 -1.387096 -77.933588 -8.473459 -68.363160 -39.045465 4.283845 -9.503263 0.000000 0.000000 0.000000 -29.940693 -5.408737 4.528507 94.722164 11.414046 85.494741 -25.826303 7.948084 -3.491862 0.000000 0.000000 0.000000 
